<?xml version="1.0" standalone="no"?>
<!DOCTYPE svg PUBLIC "-//W3C//DTD SVG 20010904//EN"
 "http://www.w3.org/TR/2001/REC-SVG-20010904/DTD/svg10.dtd">
<svg version="1.0" xmlns="http://www.w3.org/2000/svg"
 width="905.000000pt" height="905.000000pt" viewBox="0 0 905.000000 905.000000"
 preserveAspectRatio="xMidYMid meet">
<metadata>
Created by potrace 1.14, written by Peter Selinger 2001-2017
</metadata>
<g transform="translate(0.000000,905.000000) scale(0.100000,-0.100000)"
fill="#000000" stroke="none">
<path d="M4425 8740 c-3 -5 -12 -7 -20 -3 -8 3 -15 0 -15 -6 0 -6 -7 -8 -17
-4 -10 4 -14 2 -9 -5 3 -6 2 -13 -4 -17 -5 -3 -10 -2 -10 4 0 6 -7 8 -15 5 -8
-4 -13 -10 -10 -14 3 -5 0 -12 -6 -16 -8 -4 -9 -3 -5 4 9 15 4 15 -31 0 -15
-6 -34 -12 -41 -14 -24 -5 -63 -35 -57 -44 3 -6 -1 -7 -9 -4 -9 3 -16 1 -16
-6 0 -6 -5 -8 -11 -5 -6 4 -13 -3 -16 -15 -4 -13 -8 -17 -13 -11 -4 8 -15 3
-33 -13 -14 -13 -28 -21 -31 -18 -3 3 -6 0 -6 -6 0 -7 -7 -12 -15 -12 -8 0
-15 -4 -15 -10 0 -6 -6 -9 -12 -8 -7 2 -12 -2 -11 -9 2 -7 -6 -10 -17 -8 -11
2 -20 -1 -20 -6 0 -6 -4 -7 -10 -4 -5 3 -10 1 -10 -4 0 -6 -7 -11 -15 -11 -9
0 -20 -10 -25 -22 -5 -13 -9 -17 -9 -10 -1 10 -8 8 -28 -6 -16 -10 -36 -22
-46 -25 -10 -4 -16 -11 -12 -16 3 -5 0 -13 -6 -17 -8 -5 -9 -3 -4 6 6 10 4 12
-9 7 -10 -4 -20 -7 -22 -7 -3 0 -2 -4 1 -10 3 -5 0 -7 -8 -4 -8 3 -20 -2 -27
-11 -7 -8 -20 -15 -30 -15 -19 0 -45 -26 -33 -32 4 -3 2 -3 -4 -2 -18 5 -44
-7 -38 -16 3 -5 -4 -6 -15 -3 -11 3 -20 0 -20 -6 0 -6 5 -11 10 -11 6 0 10 -5
10 -11 0 -8 -4 -8 -14 0 -11 9 -20 10 -35 1 -12 -6 -21 -13 -21 -16 0 -3 5 -2
10 1 16 10 11 -1 -7 -16 -11 -10 -14 -10 -9 -1 4 7 1 12 -9 12 -8 0 -18 -7
-21 -15 -4 -8 -9 -13 -13 -11 -14 8 -53 -15 -48 -28 4 -10 0 -13 -13 -11 -11
2 -26 -3 -34 -11 -8 -8 -19 -14 -25 -14 -5 0 -24 -13 -41 -29 -22 -20 -28 -30
-18 -33 7 -3 -2 -5 -20 -5 -19 0 -38 -6 -43 -14 -5 -8 -9 -10 -9 -6 0 8 -90
-50 -100 -64 -3 -4 -24 -15 -47 -25 -24 -10 -43 -25 -43 -33 0 -10 -3 -11 -14
-2 -11 9 -16 9 -22 0 -4 -8 -3 -9 4 -5 7 4 12 5 12 2 0 -3 -10 -10 -21 -17
-17 -9 -20 -8 -14 3 3 7 -2 3 -13 -9 -11 -12 -22 -19 -26 -16 -3 4 -6 1 -6 -5
0 -7 -6 -12 -14 -12 -8 0 -16 -3 -18 -7 -1 -5 -16 -16 -33 -25 -16 -10 -29
-22 -28 -27 2 -6 -4 -8 -12 -5 -8 4 -15 2 -15 -3 0 -6 -15 -18 -34 -28 -19
-11 -32 -24 -29 -29 4 -6 3 -8 -1 -4 -9 8 -68 -11 -78 -25 -3 -6 -15 -11 -25
-12 -11 0 -26 -7 -34 -13 -58 -50 -77 -63 -99 -69 -14 -3 -27 -9 -30 -13 -3
-3 -22 -14 -42 -23 -21 -10 -38 -20 -38 -23 0 -3 6 -2 13 2 8 6 8 3 -2 -9 -10
-12 -18 -14 -31 -7 -13 7 -21 6 -26 -2 -5 -7 -2 -9 7 -4 8 4 5 1 -6 -8 -11 -8
-26 -20 -33 -26 -9 -8 -12 -7 -13 2 0 7 -4 3 -9 -8 -10 -26 -51 -40 -43 -15 4
13 2 13 -7 -2 -6 -9 -15 -15 -20 -12 -5 3 -12 0 -16 -6 -4 -8 -3 -9 4 -5 7 4
12 3 12 -2 0 -15 -30 -23 -31 -9 0 7 -5 1 -10 -13 -8 -20 -12 -22 -20 -10 -9
12 -10 11 -6 -6 4 -18 0 -22 -19 -19 -13 1 -24 -2 -24 -6 0 -5 -3 -8 -7 -7 -5
1 -24 -8 -43 -20 -19 -12 -30 -22 -25 -22 6 -1 -1 -7 -14 -14 -14 -8 -31 -12
-38 -9 -7 3 -16 -2 -19 -11 -3 -9 -15 -16 -26 -16 -12 0 -17 -4 -12 -12 5 -7
2 -9 -9 -5 -8 3 -21 -1 -27 -8 -7 -8 -16 -12 -21 -9 -5 3 -12 -2 -15 -10 -3
-9 -10 -13 -15 -10 -5 3 -9 0 -9 -6 0 -6 -5 -8 -12 -4 -6 4 -8 3 -5 -3 4 -6
-3 -19 -15 -29 -21 -19 -21 -19 -9 6 l12 25 -20 -24 c-12 -12 -18 -28 -14 -34
3 -6 1 -7 -5 -3 -7 4 -12 2 -12 -5 0 -7 -3 -9 -6 -6 -4 4 -1 13 6 22 7 8 8 15
3 15 -6 0 -15 -10 -21 -22 -6 -13 -11 -18 -11 -11 -1 7 -7 10 -15 7 -9 -3 -12
-12 -8 -22 5 -15 4 -15 -12 -3 -15 13 -18 12 -22 -7 -4 -12 -12 -18 -19 -16
-7 3 -22 -4 -33 -16 -11 -12 -25 -19 -31 -16 -5 4 -15 -3 -21 -14 -6 -11 -15
-20 -21 -20 -6 0 -7 5 -3 12 4 7 3 8 -5 4 -6 -4 -9 -11 -6 -16 3 -4 -3 -14
-12 -21 -12 -10 -14 -10 -9 -1 8 14 -3 16 -23 3 -8 -5 -11 -16 -8 -24 4 -11 0
-13 -15 -9 -15 4 -19 2 -13 -7 6 -10 3 -11 -15 -1 -12 7 -20 8 -16 2 6 -11
-28 -45 -36 -36 -9 9 -69 -26 -63 -36 3 -6 -1 -7 -9 -4 -9 4 -18 -1 -22 -10
-3 -9 -10 -14 -14 -11 -5 3 -16 -2 -24 -11 -9 -8 -16 -13 -16 -9 0 8 -63 -27
-72 -40 -4 -5 -4 -13 -1 -19 3 -5 1 -6 -5 -2 -7 4 -20 2 -29 -3 -10 -6 -14
-11 -10 -11 5 0 1 -7 -7 -16 -9 -8 -20 -12 -26 -9 -5 3 -10 -1 -10 -10 0 -9
-4 -14 -9 -11 -4 3 -19 -3 -31 -14 -12 -11 -30 -22 -39 -25 -9 -3 -27 -21 -40
-40 -13 -19 -28 -32 -34 -28 -5 3 -7 1 -4 -4 4 -6 0 -14 -8 -17 -16 -6 -75
-120 -75 -143 0 -7 -4 -13 -9 -13 -5 0 -7 -14 -4 -31 2 -17 1 -29 -4 -26 -5 3
-9 -31 -8 -76 0 -45 -4 -85 -10 -89 -6 -5 -5 -8 3 -8 8 0 10 -8 6 -26 -5 -21
-4 -25 6 -19 10 6 11 4 4 -6 -13 -21 -13 -262 0 -271 7 -5 3 -8 -9 -8 -11 0
-15 -4 -10 -8 6 -4 10 -76 10 -180 0 -108 -4 -172 -10 -172 -7 0 -7 -3 0 -8 6
-4 10 -32 10 -62 0 -30 -4 -58 -10 -62 -7 -5 -7 -8 0 -8 6 0 10 -60 10 -159 0
-92 -4 -157 -9 -154 -5 4 -5 0 0 -8 5 -8 7 -22 6 -31 -2 -10 3 -18 10 -18 10
0 10 -2 -1 -9 -13 -8 -13 -12 0 -27 8 -10 9 -15 2 -11 -15 9 -14 -32 1 -52 8
-11 8 -13 -1 -8 -8 5 -11 -13 -10 -68 0 -45 5 -75 11 -75 6 0 5 -4 -3 -9 -12
-8 -13 -12 -1 -25 11 -14 10 -16 -5 -10 -14 6 -16 4 -9 -7 14 -23 15 -49 1
-49 -7 0 -8 -3 -2 -8 15 -11 17 -32 3 -32 -6 0 -3 -7 8 -16 10 -8 13 -13 7 -9
-9 4 -13 -1 -13 -15 0 -14 4 -19 13 -14 9 6 9 4 0 -7 -17 -17 -17 -43 0 -33 7
5 7 1 -2 -10 -12 -14 -12 -19 -2 -26 11 -6 11 -9 0 -12 -12 -5 -12 -9 -1 -28
8 -12 9 -19 3 -16 -13 8 -10 -82 3 -103 6 -9 5 -12 -1 -8 -6 4 -10 -4 -10 -18
0 -14 4 -22 9 -19 5 3 4 -4 -4 -15 -11 -18 -11 -23 2 -31 12 -8 12 -10 1 -10
-11 0 -11 -3 0 -17 8 -9 9 -14 3 -10 -7 4 -12 -2 -12 -18 0 -14 5 -25 10 -25
5 0 6 -5 3 -10 -4 -6 -11 -8 -16 -5 -5 3 -6 -1 -3 -9 3 -9 11 -16 18 -16 7 0
7 -3 1 -8 -16 -11 -18 -44 -3 -54 10 -7 9 -11 -5 -22 -17 -13 -17 -14 0 -20
15 -6 15 -8 3 -16 -13 -9 -13 -10 0 -10 13 0 13 -1 0 -10 -13 -9 -13 -11 0
-20 10 -6 11 -10 3 -10 -7 0 -13 -5 -13 -11 0 -5 5 -7 12 -3 7 5 8 3 2 -7 -13
-22 -15 -49 -3 -49 8 0 8 -5 -1 -15 -10 -12 -10 -15 1 -15 9 0 10 -3 4 -8 -13
-9 -13 -72 0 -72 5 0 4 -4 -4 -9 -12 -8 -12 -12 -2 -25 9 -11 10 -16 2 -16 -6
0 -11 -5 -11 -11 0 -5 6 -7 13 -3 8 5 8 2 -2 -9 -11 -14 -11 -17 0 -17 11 0
11 -2 -1 -10 -13 -9 -13 -10 0 -10 9 0 11 -3 5 -8 -13 -9 -16 -42 -3 -42 5 0
6 -5 3 -10 -4 -6 -12 -7 -18 -3 -8 5 -8 2 0 -9 7 -8 11 -29 9 -46 -2 -18 1
-32 7 -32 5 0 5 -6 -2 -14 -9 -11 -9 -15 1 -20 11 -5 11 -7 0 -12 -10 -5 -10
-9 0 -22 10 -12 10 -14 1 -8 -7 4 -13 2 -13 -3 0 -6 5 -11 11 -11 8 0 7 -6 -2
-17 -11 -13 -11 -17 -2 -20 9 -3 10 -10 3 -24 -7 -12 -7 -19 -1 -19 10 0 7
-32 -4 -50 -3 -6 -1 -10 6 -10 8 0 8 -4 -1 -15 -7 -8 -8 -15 -3 -15 10 0 9
-102 -1 -119 -4 -6 -1 -11 6 -11 10 0 10 -2 -1 -9 -7 -5 -9 -11 -4 -14 10 -6
8 -71 -2 -87 -3 -6 -2 -10 3 -10 13 0 10 -63 -3 -72 -7 -5 -6 -8 0 -8 12 0 12
-101 0 -120 -5 -9 -4 -11 3 -6 13 8 12 -20 -1 -41 -5 -7 -4 -13 1 -13 13 0 10
-73 -3 -82 -6 -5 -6 -8 2 -8 6 0 11 -9 10 -20 -1 -11 -4 -20 -7 -20 -4 0 -7
-7 -7 -15 0 -8 3 -15 7 -15 9 0 5 -84 -4 -99 -4 -5 -2 -12 4 -16 6 -4 8 -11 5
-16 -4 -5 0 -9 7 -9 10 0 10 -2 1 -8 -12 -8 -7 -52 6 -52 6 0 10 -17 13 -57 1
-7 5 -13 9 -13 7 0 24 -49 21 -62 -1 -5 2 -8 8 -8 10 0 66 -53 61 -59 -9 -8
25 -41 41 -41 10 0 18 -4 18 -9 0 -6 9 -8 20 -6 11 2 18 0 15 -5 -3 -5 -1 -11
5 -15 6 -4 8 -11 4 -16 -3 -5 -2 -8 3 -7 15 4 82 -26 77 -34 -3 -5 -2 -8 3 -7
19 3 46 -2 40 -8 -9 -9 24 -32 46 -33 12 0 16 -4 11 -12 -6 -10 -5 -10 7 -1
13 10 18 7 33 -17 9 -17 24 -30 33 -30 9 0 13 -3 10 -7 -11 -10 37 -31 50 -21
7 6 14 4 19 -3 5 -8 3 -10 -7 -5 -8 4 -3 -2 11 -13 14 -11 30 -19 37 -16 6 2
14 -3 17 -11 3 -8 12 -14 21 -14 9 0 27 -11 41 -25 14 -14 31 -25 39 -25 8 0
14 -5 13 -11 -4 -14 60 -52 73 -44 5 4 9 -1 9 -9 0 -9 6 -13 14 -10 7 3 20 -2
29 -10 9 -9 20 -16 26 -16 13 0 80 -38 106 -60 25 -22 69 -45 62 -33 -3 5 3 9
13 9 15 0 17 -3 7 -15 -8 -10 -8 -13 -1 -8 7 4 17 0 24 -8 7 -8 17 -12 23 -8
6 4 8 0 4 -9 -4 -12 -1 -14 14 -11 10 3 19 0 19 -5 0 -6 10 -17 22 -23 22 -12
22 -11 8 6 -14 17 -14 17 7 5 11 -8 19 -20 16 -27 -4 -9 0 -11 13 -6 12 4 15
3 10 -5 -5 -8 -2 -10 8 -6 9 3 16 1 16 -6 0 -6 5 -8 10 -5 6 3 13 0 15 -8 3
-7 21 -20 40 -27 19 -8 35 -17 35 -22 0 -4 7 -8 15 -8 8 0 15 -5 15 -10 0 -6
6 -9 13 -8 6 2 11 -3 9 -9 -1 -7 2 -13 8 -13 5 0 10 6 10 13 0 8 3 7 10 -3 5
-8 15 -15 22 -15 7 -1 12 -6 11 -13 -2 -7 4 -9 14 -5 12 5 15 2 10 -9 -4 -12
-1 -14 14 -11 11 3 21 -1 25 -10 3 -9 12 -13 20 -10 8 3 14 -1 14 -8 0 -12 2
-12 9 -1 6 10 10 8 14 -8 4 -15 11 -21 21 -17 10 4 16 1 16 -7 0 -7 8 -20 17
-27 11 -10 14 -10 9 -1 -4 6 -3 12 2 12 6 0 13 -7 16 -16 4 -9 9 -14 13 -11 3
4 18 -2 33 -13 16 -11 31 -20 35 -20 13 0 34 -28 27 -36 -4 -5 2 -2 12 6 13
10 17 10 12 3 -4 -8 -1 -13 8 -13 9 0 16 -6 16 -12 0 -9 4 -8 10 2 8 13 10 12
10 -3 0 -10 4 -15 10 -12 6 3 10 1 10 -5 0 -6 5 -8 10 -5 6 3 10 1 10 -5 0 -6
5 -8 10 -5 6 3 10 -1 10 -9 0 -10 6 -13 17 -9 10 4 14 2 10 -4 -5 -7 0 -9 13
-6 14 4 20 0 20 -11 0 -9 12 -21 26 -26 14 -6 32 -17 41 -25 8 -8 19 -13 24
-10 5 4 9 1 9 -4 0 -6 5 -11 11 -11 6 0 17 -7 25 -15 9 -8 27 -18 42 -22 15
-3 35 -15 44 -25 9 -11 19 -19 22 -19 20 3 26 0 21 -9 -3 -5 1 -10 10 -10 9 0
14 -4 11 -9 -4 -5 2 -8 11 -7 10 2 24 -4 31 -13 10 -12 12 -13 6 -1 -6 12 -4
12 12 -1 10 -9 25 -14 32 -12 7 3 16 -4 19 -15 6 -24 46 -47 67 -39 10 4 16 1
16 -8 0 -8 7 -15 15 -15 8 0 19 -9 25 -21 7 -11 14 -18 18 -15 3 4 17 -4 30
-16 14 -13 22 -17 18 -11 -12 22 12 14 38 -12 14 -14 33 -25 43 -25 15 0 16
-2 3 -10 -13 -8 -13 -10 2 -10 28 0 87 -34 88 -50 0 -11 2 -12 8 -3 6 9 12 7
22 -7 8 -11 19 -20 25 -20 22 0 65 -25 61 -36 -2 -6 2 -11 10 -11 7 0 10 5 7
11 -4 6 1 5 11 -3 12 -10 13 -16 6 -21 -8 -5 -6 -9 5 -13 9 -4 13 -3 10 3 -11
17 7 11 21 -7 13 -17 14 -17 7 1 -5 14 2 11 23 -11 26 -27 56 -45 77 -47 4 -1
12 -8 17 -16 8 -12 10 -12 10 -1 0 8 3 11 8 7 4 -4 7 -13 7 -19 0 -7 8 -12 18
-12 10 0 25 -11 32 -25 8 -14 14 -20 15 -13 0 18 60 -5 60 -24 0 -8 4 -11 10
-8 5 3 20 -1 33 -10 13 -8 27 -12 31 -8 4 5 6 3 4 -2 -2 -6 1 -11 6 -12 5 -1
12 -6 15 -11 3 -5 22 -17 41 -27 19 -9 44 -25 55 -35 23 -20 69 -34 103 -32
12 0 20 -3 17 -7 -2 -5 18 -19 47 -31 38 -16 53 -19 58 -10 6 9 9 9 12 0 4
-12 91 -15 143 -4 17 3 37 7 44 8 8 2 17 8 19 14 2 7 8 10 13 6 5 -3 9 -1 9 5
0 9 56 27 73 23 4 -1 7 2 7 7 0 5 9 12 19 16 11 3 36 21 57 40 21 19 43 34 48
33 11 -2 36 10 106 51 19 12 46 27 60 33 35 17 36 18 20 29 -11 7 -8 8 12 3
17 -4 29 -1 35 8 8 14 42 32 55 30 4 -1 20 15 37 35 19 23 35 34 45 30 9 -4
16 -2 16 3 0 6 6 10 14 10 7 0 24 10 37 23 27 25 30 26 63 32 21 4 62 45 58
59 -2 5 3 4 11 -3 12 -9 16 -8 21 4 3 9 10 14 15 11 5 -3 27 8 50 24 23 17 66
41 95 54 29 13 57 29 60 35 4 6 18 11 32 11 17 0 23 4 18 12 -5 8 0 9 14 6 12
-4 20 -2 16 3 -3 5 4 9 15 9 12 0 21 5 21 11 0 5 -6 7 -12 3 -8 -4 -10 -3 -5
2 5 5 12 9 15 9 12 0 82 36 82 41 0 3 -5 2 -12 -2 -7 -4 -8 -3 -4 5 6 8 12 9
20 2 9 -8 26 1 62 34 27 25 55 43 61 40 7 -2 13 0 13 5 0 6 9 10 20 10 13 0
18 5 14 15 -4 8 -2 15 4 15 6 0 12 -5 14 -12 3 -7 7 -5 11 6 4 9 3 15 -2 11
-5 -3 -12 -1 -15 4 -7 11 13 9 33 -3 10 -7 12 -6 6 4 -6 10 -4 12 8 7 10 -3
17 -2 17 3 0 6 7 10 15 10 9 0 27 12 40 26 15 16 29 23 37 18 9 -5 8 -1 -2 11
-9 11 -10 16 -2 11 6 -4 12 -3 12 3 0 6 7 8 15 5 8 -4 12 -11 8 -17 -3 -6 -1
-7 6 -3 6 4 9 12 6 17 -6 8 9 13 28 10 5 -1 6 3 2 9 -3 5 8 18 24 28 17 10 28
22 23 27 -4 4 1 5 11 2 9 -4 17 -2 17 3 0 6 5 10 11 10 5 0 7 -5 3 -11 -11
-18 28 6 51 31 27 30 73 53 92 46 9 -4 17 1 20 14 3 11 12 20 19 20 8 0 14 4
14 9 0 10 39 27 53 23 4 -1 7 3 7 10 0 6 3 9 6 5 3 -3 26 10 51 29 24 19 50
34 57 34 7 0 21 9 31 20 10 12 25 18 32 15 8 -2 12 -1 9 4 -5 8 41 32 67 35 4
1 12 8 17 16 5 8 10 12 10 8 0 -4 11 4 25 18 14 14 30 22 35 19 6 -3 10 -1 10
4 0 6 7 11 15 11 9 0 18 7 21 15 4 8 10 12 15 9 5 -3 9 0 9 6 0 6 5 8 10 5 6
-3 10 1 10 10 0 9 4 14 9 10 5 -3 12 -1 15 4 4 5 18 7 32 5 21 -4 25 -2 20 11
-3 9 -2 13 4 10 6 -3 10 -1 10 4 0 6 6 11 14 11 8 0 17 6 19 13 4 9 8 8 17 -3
9 -12 10 -10 4 10 -6 23 -6 24 11 10 15 -12 17 -12 10 -1 -6 11 -4 13 10 7 14
-5 15 -4 7 7 -8 10 -7 13 8 14 10 1 37 13 59 28 23 14 46 23 51 20 6 -4 10 -2
10 4 0 5 10 11 23 13 12 2 21 9 19 16 -1 6 3 12 9 12 6 0 8 7 5 17 -4 10 -4
14 0 10 4 -4 14 -1 22 6 13 10 14 9 7 -2 -6 -11 -5 -12 6 -5 8 4 22 10 33 11
22 4 76 41 76 53 0 5 14 11 31 15 19 4 29 12 25 20 -3 8 2 11 12 9 9 -3 30 7
46 20 16 14 33 23 39 19 5 -3 7 -2 4 3 -3 6 -2 16 4 24 7 12 9 11 9 -5 0 -15
2 -17 9 -6 5 8 14 10 22 6 8 -5 11 -5 7 -1 -10 11 24 45 49 49 12 1 28 8 35
15 8 6 17 10 19 7 3 -2 18 7 33 20 16 14 25 25 20 25 -5 1 11 10 36 22 25 12
48 21 52 20 4 -1 5 4 2 11 -2 7 7 20 21 27 17 9 25 20 22 31 -3 12 0 16 9 12
8 -3 14 1 14 11 0 9 5 16 10 16 6 0 10 6 10 14 0 8 6 21 13 28 6 7 12 19 13
26 1 6 2 21 3 33 0 11 5 18 10 15 5 -4 7 3 4 14 -3 11 -1 20 5 20 6 0 9 13 7
30 -3 19 0 30 8 30 8 0 8 3 -2 9 -10 7 -11 13 -1 31 7 12 7 20 2 16 -12 -7
-11 42 1 62 5 6 4 12 -1 12 -13 0 -10 93 3 102 6 5 5 8 -4 8 -11 0 -11 3 0 17
8 9 9 14 3 10 -8 -4 -11 2 -10 18 0 14 6 25 11 25 7 0 7 3 0 8 -14 10 -15 56
-1 64 7 5 7 8 0 8 -12 0 -13 49 0 69 6 10 6 12 -2 7 -7 -4 -12 -1 -12 8 0 9 5
16 12 16 6 0 3 7 -8 16 -10 8 -13 12 -5 8 11 -5 13 -2 9 14 -4 13 -1 22 5 22
8 0 8 3 2 8 -6 4 -10 23 -10 42 0 19 4 38 10 42 6 5 5 8 -3 8 -9 0 -11 7 -7
19 3 11 1 22 -5 26 -8 5 -6 13 5 25 12 14 13 20 4 26 -8 5 -10 3 -4 -6 5 -9 4
-11 -4 -6 -9 6 -9 11 -1 21 8 10 8 15 0 20 -8 5 -6 13 5 25 12 14 13 20 4 26
-8 5 -10 3 -4 -6 5 -9 4 -11 -4 -6 -6 4 -8 13 -4 19 4 7 7 31 5 55 -1 32 1 41
11 36 8 -5 7 -2 -2 9 -11 14 -11 17 0 17 9 0 10 3 4 8 -13 10 -14 62 -1 62 6
0 5 4 -3 9 -9 6 -10 11 -2 15 7 5 7 13 -2 27 -10 16 -9 21 3 29 12 8 12 10 1
10 -10 0 -11 3 -2 14 9 10 9 16 1 21 -8 5 -8 10 0 20 8 10 8 15 0 20 -8 5 -8
10 0 20 7 9 7 15 1 19 -5 4 -8 15 -6 26 2 11 -1 20 -7 20 -7 0 -3 6 8 14 18
14 18 15 1 21 -16 7 -16 8 -1 20 14 9 14 14 4 20 -9 6 -11 4 -5 -5 6 -9 4 -11
-5 -5 -10 6 -9 11 5 22 11 7 14 13 9 13 -5 0 -10 9 -11 20 -1 13 2 18 10 13 7
-4 6 0 -2 10 -11 14 -11 17 0 17 9 0 10 3 4 8 -14 9 -13 55 0 64 6 5 5 8 -4 8
-10 0 -11 3 -2 14 8 10 9 16 1 21 -5 3 -10 13 -10 21 0 9 5 12 12 8 7 -5 8 -3
2 7 -12 20 -12 89 1 89 7 0 7 3 0 8 -12 8 -13 22 -2 40 5 6 4 12 0 12 -5 0 -9
24 -9 54 1 30 4 52 7 50 3 -1 6 3 6 11 0 8 -3 15 -7 15 -3 0 -6 18 -7 40 -1
27 3 38 11 33 6 -4 5 1 -3 10 -11 14 -11 20 0 34 10 11 10 14 1 9 -8 -5 -11
-1 -8 16 2 13 -1 28 -6 35 -5 7 -5 13 0 17 5 3 8 19 6 36 -3 23 0 29 9 24 8
-5 7 -2 -2 9 -11 14 -11 17 0 17 11 0 11 2 0 9 -13 8 -13 12 0 27 9 11 9 15 2
10 -7 -4 -13 -2 -13 3 0 6 6 11 13 11 8 0 8 3 -2 9 -11 7 -12 13 -3 23 7 9 8
19 2 28 -13 21 -12 33 2 24 8 -5 8 -3 2 7 -12 19 -12 89 1 89 5 0 4 4 -4 9
-13 8 -13 12 0 27 9 11 9 15 1 10 -13 -8 -13 19 1 42 5 6 5 18 0 25 -12 18
-12 88 0 80 6 -4 7 -1 1 8 -14 23 -15 109 -1 109 8 0 7 4 -2 9 -13 8 -13 12 0
27 9 11 9 15 2 10 -7 -4 -13 -3 -13 1 0 5 6 15 13 22 6 8 7 11 1 8 -15 -8 -14
155 0 165 7 5 7 8 -1 8 -7 0 -13 9 -13 20 0 11 6 20 13 20 8 0 9 3 1 8 -15 10
-15 235 0 244 8 6 8 8 -1 8 -16 0 -16 438 0 458 8 10 7 12 -4 10 -10 -2 -13 5
-10 27 2 17 7 33 13 36 5 4 3 9 -6 12 -12 5 -14 12 -7 30 7 18 5 28 -7 41 -13
14 -14 16 -2 11 12 -4 15 3 15 30 0 19 -4 35 -9 35 -4 0 -6 6 -3 14 3 7 0 19
-6 25 -6 6 -7 11 -3 11 5 0 2 10 -6 23 -8 12 -18 36 -22 52 -10 43 -35 77 -51
71 -9 -3 -12 0 -9 8 3 8 0 17 -7 22 -8 5 -10 3 -4 -6 5 -9 4 -11 -3 -6 -7 4
-12 14 -12 22 0 8 -7 14 -15 14 -8 0 -15 6 -15 13 0 22 -37 51 -46 36 -5 -8
-3 -10 6 -4 9 5 11 4 6 -4 -9 -14 -36 3 -36 23 0 6 5 4 10 -4 5 -8 10 -10 10
-4 0 14 -25 36 -33 28 -3 -3 -10 4 -17 15 -6 12 -15 19 -19 17 -5 -3 -16 3
-26 14 -10 11 -22 17 -26 14 -5 -3 -9 -1 -9 5 0 6 -7 7 -17 4 -9 -4 -14 -2
-10 3 3 6 -4 16 -16 24 -20 12 -21 12 -8 -4 12 -14 12 -16 -3 -10 -9 3 -16 10
-16 14 0 4 -12 16 -27 26 -27 17 -28 17 -13 -1 14 -17 14 -17 -7 -5 -12 8 -20
17 -18 21 3 3 -23 21 -57 39 -33 18 -57 26 -53 19 4 -8 -3 -2 -16 12 -13 14
-31 25 -41 24 -9 -2 -18 6 -22 18 -4 16 -8 18 -19 9 -11 -10 -17 -8 -28 5 -13
17 -13 17 6 3 19 -14 19 -14 6 3 -7 9 -20 17 -27 17 -8 0 -14 5 -14 11 0 5 -4
7 -10 4 -5 -3 -10 -1 -10 4 0 6 -6 11 -14 11 -8 0 -22 7 -30 16 -12 11 -16 12
-16 2 0 -7 -7 -2 -16 10 -8 12 -21 22 -27 22 -7 0 -27 14 -46 30 -36 32 -51
39 -31 15 11 -13 10 -14 -4 -9 -9 3 -16 12 -16 20 0 16 -37 37 -50 29 -6 -4
-10 -3 -9 2 1 4 1 15 0 23 -1 13 -2 13 -11 0 -5 -8 -10 -10 -10 -4 0 7 -7 15
-16 18 -10 4 -13 2 -9 -7 4 -6 0 -4 -8 5 -8 10 -17 15 -20 11 -4 -3 -7 -1 -7
6 0 7 -6 11 -12 8 -7 -2 -19 3 -26 12 -8 9 -11 10 -7 4 3 -7 1 -13 -4 -13 -10
0 -15 14 -12 32 1 7 -67 24 -81 20 -4 -1 -5 4 -2 12 3 8 -7 18 -25 26 -17 7
-31 17 -31 22 0 5 -4 7 -9 4 -5 -3 -14 1 -21 10 -7 8 -19 13 -27 10 -8 -3 -12
-2 -9 3 3 5 -2 15 -11 22 -12 10 -14 10 -9 2 4 -7 2 -13 -3 -13 -6 0 -11 6
-11 14 0 20 -17 29 -26 15 -5 -8 -3 -9 6 -4 9 5 11 4 6 -4 -4 -6 -12 -9 -17
-5 -5 3 -7 10 -4 15 4 5 -1 9 -9 9 -9 0 -16 5 -16 11 0 5 5 7 12 3 7 -4 8 -3
4 5 -6 9 -11 9 -22 0 -11 -9 -14 -8 -14 6 0 10 -5 15 -14 12 -15 -6 -48 27
-38 39 4 5 -1 2 -11 -5 -15 -12 -20 -12 -30 -1 -9 10 -9 11 0 6 9 -5 11 -2 7
9 -5 11 -10 13 -19 5 -10 -8 -15 -6 -20 11 -5 15 -9 18 -15 9 -6 -9 -12 -9
-29 -1 -11 7 -21 14 -21 17 0 2 10 -1 23 -7 20 -11 21 -11 8 4 -7 10 -18 17
-24 17 -6 0 -20 8 -31 18 -20 17 -21 16 -6 -3 14 -19 13 -19 -6 0 -11 12 -28
21 -38 19 -10 -1 -15 0 -12 3 9 9 -15 34 -26 27 -5 -3 -17 3 -27 15 -10 11
-21 18 -25 14 -3 -3 -6 0 -6 7 0 7 -3 10 -6 7 -4 -4 -20 3 -37 15 -17 12 -28
17 -24 12 3 -6 0 -11 -8 -11 -8 0 -17 7 -19 14 -4 9 -1 11 6 7 7 -4 8 -3 4 5
-4 6 -12 8 -18 5 -6 -4 -22 7 -37 23 -14 16 -34 29 -43 27 -10 -1 -18 2 -18 7
0 5 -7 9 -15 9 -8 0 -24 9 -35 20 -11 11 -27 20 -35 20 -8 0 -15 5 -15 10 0 6
-7 10 -15 10 -8 0 -15 5 -15 10 0 6 -7 10 -15 10 -23 0 -65 22 -59 31 3 5 -4
9 -15 9 -12 0 -21 4 -21 10 0 5 -3 9 -7 8 -17 -3 -42 15 -36 26 3 6 3 8 -2 4
-4 -4 -20 1 -34 10 -14 10 -52 31 -83 47 -32 16 -58 33 -58 38 0 4 -4 5 -10 2
-5 -3 -10 -1 -10 4 0 6 -7 11 -15 11 -8 0 -15 5 -15 10 0 6 -7 10 -15 10 -8 0
-24 9 -35 20 -11 11 -23 20 -27 20 -4 0 -16 9 -27 19 -12 11 -28 21 -36 23 -8
2 -21 10 -28 18 -10 11 -12 11 -6 1 5 -9 3 -12 -4 -7 -7 4 -12 15 -12 24 0 15
-2 15 -10 2 -8 -12 -10 -12 -11 5 0 11 -3 14 -6 7 -3 -9 -9 -7 -21 6 -10 10
-13 11 -7 2 5 -8 -4 -3 -21 13 -17 15 -38 27 -48 27 -9 0 -14 5 -11 10 3 6 -1
11 -9 11 -25 2 -30 4 -43 12 -8 5 -13 4 -13 -2 0 -6 -9 -2 -20 9 -11 11 -20
23 -20 27 0 3 9 -2 20 -12 11 -10 20 -15 20 -10 0 4 -8 14 -17 21 -14 9 -21
10 -32 1 -12 -9 -13 -9 -7 1 4 7 1 12 -9 12 -9 0 -14 4 -11 9 5 8 -19 19 -37
17 -5 -1 -13 7 -18 16 -5 9 -18 15 -29 13 -14 -3 -17 1 -13 12 4 11 2 14 -5 9
-7 -4 -15 -1 -18 8 -3 9 -10 16 -16 16 -5 0 -7 -4 -4 -8 3 -5 -1 -9 -8 -9 -8
0 -12 8 -9 21 4 15 2 17 -5 8 -7 -11 -10 -11 -16 3 -3 9 -10 13 -16 10 -5 -3
-10 -2 -10 2 0 5 -18 16 -41 26 -24 11 -39 23 -36 30 3 8 -5 14 -22 15 -14 1
-31 9 -37 17 -6 8 -14 12 -17 8 -4 -3 -7 2 -7 13 0 16 -2 17 -10 4 -8 -13 -10
-12 -10 3 0 10 -5 15 -10 12 -6 -4 -8 -12 -4 -18 3 -7 0 -5 -8 3 -7 8 -22 16
-33 18 -29 4 -105 44 -105 54 0 5 -4 6 -10 3 -5 -3 -10 0 -10 7 0 9 -3 9 -10
-2 -8 -13 -10 -13 -10 -1 0 11 -4 9 -15 -5 -10 -12 -13 -13 -10 -4 5 13 -3 16
-37 15 -24 0 -48 -3 -55 -8 -6 -4 -14 -3 -18 3 -8 13 -22 13 -30 0z m-1060
-609 c3 -5 2 -12 -3 -15 -5 -3 -9 1 -9 9 0 17 3 19 12 6z m-1434 -844 c-6 -8
-9 -16 -6 -18 2 -3 -5 -5 -15 -6 -11 -1 -20 3 -20 8 0 6 4 8 9 5 5 -3 14 1 21
9 7 8 15 15 17 15 3 0 0 -6 -6 -13z m5289 -62 c0 -2 -6 -5 -13 -8 -8 -3 -14 1
-14 8 0 7 6 11 14 8 7 -3 13 -6 13 -8z m469 -281 c14 -12 -19 -1 -35 12 -18
14 -18 14 6 3 14 -6 27 -13 29 -15z m195 -123 c-4 -3 -9 0 -11 7 -3 6 -10 9
-15 6 -7 -4 -8 -2 -4 5 6 9 11 9 22 0 8 -6 12 -15 8 -18z m284 -616 c-3 -3 -9
2 -12 12 -6 14 -5 15 5 6 7 -7 10 -15 7 -18z m-1 -500 c0 -8 -4 -12 -9 -9 -5
3 -6 10 -3 15 9 13 12 11 12 -6z m3 -1495 c0 -5 -5 -10 -11 -10 -5 0 -7 5 -4
10 3 6 8 10 11 10 2 0 4 -4 4 -10z m-9 -1487 c13 -16 12 -17 -3 -4 -10 7 -18
15 -18 17 0 8 8 3 21 -13z m-271 -597 c0 -3 -4 -8 -10 -11 -5 -3 -10 -1 -10 4
0 6 5 11 10 11 6 0 10 -2 10 -4z m-6033 -421 c0 -8 -4 -12 -9 -9 -5 3 -6 10
-3 15 9 13 12 11 12 -6z m4083 -739 c0 -2 -8 -10 -17 -17 -16 -13 -17 -12 -4
4 13 16 21 21 21 13z"/>
<path d="M4654 8729 c1 -7 12 -16 25 -20 14 -6 20 -5 16 1 -3 6 -12 10 -20 10
-7 0 -16 5 -18 10 -3 6 -4 5 -3 -1z"/>
<path d="M4710 8700 c0 -5 5 -10 11 -10 5 0 7 5 4 10 -3 6 -8 10 -11 10 -2 0
-4 -4 -4 -10z"/>
<path d="M2290 7520 c0 -5 5 -10 11 -10 5 0 7 5 4 10 -3 6 -8 10 -11 10 -2 0
-4 -4 -4 -10z"/>
<path d="M7360 1790 c-9 -6 -10 -10 -3 -10 6 0 15 5 18 10 8 12 4 12 -15 0z"/>
<path d="M7315 1770 c-3 -5 -1 -10 4 -10 6 0 11 5 11 10 0 6 -2 10 -4 10 -3 0
-8 -4 -11 -10z"/>
<path d="M6330 1189 c0 -5 5 -7 10 -4 6 3 10 8 10 11 0 2 -4 4 -10 4 -5 0 -10
-5 -10 -11z"/>
</g>
</svg>
